<svg xmlns="http://www.w3.org/2000/svg" viewBox="0 0 100 100" fill="none">
  <!-- Solo el monograma, cuadrado -->
  <g transform="translate(8, 8)">
    <path d="M 42 0
             C 65 0, 84 19, 84 42
             C 84 65, 65 84, 42 84
             C 19 84, 0 65, 0 42
             C 0 19, 19 0, 42 0
             Z"
          fill="#1f6e3a"/>
    <path d="M 42 14
             C 22 18, 10 33, 14 53
             C 18 73, 42 84, 62 73
             C 42 70, 30 56, 34 38
             C 38 24, 50 16, 42 14 Z"
          fill="#a3c947"/>
    <path d="M 42 14 C 50 18, 60 25, 64 38 C 50 28, 42 24, 42 14 Z"
          fill="#d4c11a"/>
    <ellipse cx="42" cy="42" rx="18" ry="18" fill="#fafaf9"/>
  </g>
</svg>